<svg xmlns="http://www.w3.org/2000/svg" width="30" height="30" fill="none" viewBox="0 0 30 30"><path fill="#B2CC26" d="M26.506 20.7633H19.6515c-.5215 0-.6705-.1807-.596-.7012.0425-.255.0745-.4993.1064-.7543-.0213-.0106-.0319-.0212-.0532-.0319-1.2985 1.3386-2.6077 2.6878-3.9062 4.0264 1.0324 1.4555 2.0542 2.8684 3.0973 4.3345.0532-.2338.0851-.4037.1277-.5737.0319-.17.0639-.34.1064-.5099.0852-.3931.2023-.4781.6067-.4781 1.1176 0 2.2352-.0106 3.3421 0 .6599.0106 1.1176-.255 1.4369-.8287.7876-1.3917 1.6072-2.7727 2.4055-4.1644.0532-.085.1064-.1806.1809-.3187Zm-8.0679 8.4033c-.1064-.1063-.2448-.2019-.3299-.3294-1.2453-1.721-2.48-3.442-3.7146-5.1631-.2661-.3718-.2555-.5099.0638-.8392 1.6391-1.6892 3.2783-3.3784 4.9067-5.0675.1597-.17.33-.2975.5854-.1912.2236.0956.2981.2868.2448.6055-.1064.5524-.2022 1.1049-.3086 1.6679h3.076c-.0639-.1168-.1171-.2125-.1703-.3081-1.0005-1.6998-2.0117-3.3889-3.0122-5.0887-.2554-.425-.2022-.6056.2236-.8499 1.671-.9561 3.3421-1.9123 5.0131-2.8684.447-.255.6067-.2125.8728.2337.9685 1.6361 1.9158 3.2721 2.895 4.8975.479.8074.5322 1.6042.0958 2.4329-.2235.4143-.4044.8392-.6173 1.2854-.2661-.1275-.5215-.2549-.7983-.3824.2342-.4781.4471-.9455.6812-1.4024.2235-.4568.2235-.9136-.0319-1.3492-.926-1.5829-1.8626-3.1552-2.7886-4.7381-.0213-.0319-.0426-.0531-.0745-.1063-1.5114.8606-3.0228 1.7211-4.5449 2.6028.0533.0957.0958.17.1384.2444l2.9376 4.7169c.1065.17.2129.2337.4151.2337 1.0431-.0106 2.0862-.0106 3.1293 0 .5747 0 .7663.3294.4683.8287-1.0644 1.8379-2.1287 3.6651-3.1825 5.503-.4683.8074-1.1601 1.2005-2.0968 1.2005-.9366-.0106-1.8839 0-2.8205 0h-.3193c-.1065.5312-.2129 1.0411-.298 1.5617-.0426.2762-.1491.4993-.3939.6587-.1064.0106-.1809.0106-.2448.0106ZM16.4586 8.71577c.0639.03187.0852.03187.1065.0425 1.6923.41432 3.374.82864 5.0664 1.25363.2022.0531.2341-.06378.2873-.19127.6174-1.43419 1.2347-2.87901 1.8414-4.31321.0319-.07436.0532-.1381.0851-.22309-.0319-.01063-.0425-.01063-.0532-.01063-.2661.11686-.5428.2231-.8089.33996-.3832.15936-.5428.10624-.7451-.25497-.5321-.93488-1.075-1.86976-1.5965-2.80465-.3193-.57368-.777-.84989-1.4369-.83927-1.6285.01063-3.2463 0-4.8641 0h-.2981c.0746.12749.1171.21248.1703.29747 1.107 1.84851 2.2033 3.70766 3.3102 5.55618.2555.42494.1703.64804-.2874.82864-.2661.10624-.5002.20185-.777.31871ZM19.705.833008c.894.191222 1.4475.764902 1.8519 1.551052.4045.77553.8622 1.51919 1.3199 2.29472.0851-.03187.1596-.05312.2341-.07437.4364-.19122.8834-.37183 1.3198-.57368.2235-.10623.4364-.15935.6386.0425.181.19122.1278.39307.032.61617-.5961 1.37045-1.1815 2.74091-1.7669 4.11136-.2661.60555-.5215 1.22174-.7876 1.82724-.1597.3719-.298.4462-.6918.3506-2.2884-.5737-4.5768-1.14734-6.8652-1.7104-.2448-.06374-.4151-.16997-.4364-.42494-.0212-.26559.149-.39308.3832-.47807.5322-.20185 1.0537-.42494 1.6285-.64804-.5003-.82865-.9899-1.64667-1.4901-2.49657-.0745.11686-.1277.20185-.1703.28684-.9899 1.72104-1.9691 3.43145-2.9589 5.15248-.2449.425-.4152.4674-.8515.2231-1.68173-.99862-3.36343-1.976-5.03448-2.95338-.38317-.2231-.43638-.4037-.22351-.78615.96857-1.71041 1.93714-3.4102 2.89506-5.12061.36189-.65867.926-1.00925 1.61783-1.189852h1.9904v.881762c-.5216 0-1.0005.01063-1.4795 0-.6386-.02124-1.09629.25497-1.40496.81803-.79827 1.44481-1.61783 2.86839-2.43739 4.30258-.08515.14873-.1703.29747-.26609.47807 1.52204.89239 3.03343 1.76353 4.52354 2.64529.0319-.03187.0532-.04249.0639-.06374 1.043-1.80602 2.0968-3.62267 3.1292-5.4287.0426-.07436.0213-.23372-.0319-.30808-.4896-.82865-1.0005-1.6573-1.5008-2.48594-.2342-.39308-.2129-.53119.1171-.828649C15.2772.833008 17.4911.833008 19.705.833008ZM9.31666 16.8214c.02128-.0107.04257-.0213.06386-.0319-.50025-1.7423-1.0005-3.4739-1.50075-5.2269-1.72427.2019-3.43789.4144-5.21538.6268.29802.2231.52154.3931.74506.5631.36188.2762.39381.4356.17029.818-.53218.9349-1.05371 1.8804-1.60718 2.8047-.32996.5524-.32996 1.073 0 1.636.81956 1.3917 1.62847 2.8047 2.43739 4.207.04257.085.09579.1593.17029.2656.07451-.1275.12773-.2125.18095-.3081 1.04307-1.8804 2.08615-3.7714 3.13987-5.6518.21287-.3825.45767-.4356.80891-.17.20223.1488.40446.3081.60669.4675Zm-8.482971.0637c.212871-.8393.755701-1.5086 1.149511-2.2522.23416-.425.47896-.8393.73441-1.2855-.45768-.3399-.89406-.6693-1.3411-.988-.19158-.1381-.37252-.2868-.29802-.563.07451-.2762.28738-.3187.53218-.3506 2.13937-.255 4.27874-.51 6.41811-.7649.38317-.0425.52154.0425.62797.4143.64927 2.2522 1.29853 4.5151 1.94775 6.7673.0745.2443.0639.4568-.1809.6055-.2235.1381-.4151.0532-.60669-.0956-.43639-.3506-.88342-.7011-1.35174-1.0623-.46832.8498-.93664 1.6785-1.4156 2.539.12772.0106.22351.0106.3193.0106h5.69433c.4364 0 .5854.1488.5854.5737v5.8643c0 .3506-.2554.6162-.6067.6162-1.8733 0-3.74653.0318-5.61981-.0107-.72376-.0212-1.39431-.3399-1.95842-.8074-.06387-.0531-.11708-.1168-.15966-.1912-.23416-.4249-.45767-.8605-.71312-1.3173.26609-.1275.52154-.2444.80891-.3825.19159.3612.39382.6906.55347 1.0518.27674.6161.84085.8074 1.40496.8286 1.77749.0425 3.55497.0213 5.37507.0213v-5.3438c-.0639 0-.149-.0106-.2236-.0106-1.9158 0-3.83166 0-5.75816-.0106-.19158 0-.28737.0637-.38317.2337-.45767.8287-.91535 1.6679-1.39431 2.486-.09579.1593-.26609.3187-.43639.3612-.21287.0531-.3406-.17-.44703-.3506-.97922-1.6892-1.95843-3.3783-2.927-5.0781-.14901-.2656-.244802-.5737-.361882-.8606.031931-.2018.031931-.4249.031931-.648Z"/></svg>