<svg xmlns="http://www.w3.org/2000/svg" width="40" height="40" fill="none" viewBox="0 0 40 40"><path fill="#C4C4CD" d="M31.1088 35.7315c-.3235.0209-.5322.1983-.5531.5427-.0104.1982-.0104.3861-.0104.5844 0 1.2731-.6888 1.9619-1.9515 1.9619H3.08896c-1.22097 0-1.92016-.6888-1.92016-1.8993V9.11005c0-.16697.01043-.33394.02087-.54265h5.09262c1.44012 0 2.25411-.81399 2.25411-2.24368V1.75289c0-.5844 0-.5844.59483-.5844H28.4999c1.3462 0 2.0141.66789 2.0141 2.01409v7.41982c0 .4174.2087.647.5531.6574.3548.0104.6157-.24.6157-.6574 0-2.60897.0208-5.20745-.0105-7.80594C31.6514 1.492 30.7749.448428 29.5226.0831791c-.0835-.0208714-.167-.0626142-.2505-.0939213-6.9084.0104357-13.869.0104357-20.81919.0104357C7.55544.218843 6.90843.803242 6.28229 1.43982 4.54996 3.20345 2.8072 4.95665 1.04357 6.68897.333942 7.38816 0 8.19171 0 9.19354.0208714 13.1278.0104357 17.0516.0104357 20.9859v16.0083c0 1.701 1.2314143 2.9846 2.9011243 2.9846 8.63034.0105 17.26064.0105 25.89094 0 1.941 0 3.3707-1.8993 2.9011-3.7986-.0835-.2817-.2817-.4696-.5948-.4487ZM7.34673 2.14945c.01043.04174.04174.11479.04174.18784 0 1.36707.01044 2.73415 0 4.10123 0 .58439-.30264.93921-.85573.94964-1.47143.02088-2.93243.01044-4.42473.01044 1.76363-1.76363 3.49596-3.50639 5.23872-5.24915Z"/><path fill="#C4C4CD" d="M39.207 20.8399c.7618-1.2836.2713-2.7968-1.0958-3.3812-.553-.24-.8244-.6157-.887-1.2105-.1565-1.5028-1.3984-2.4211-2.8594-2.0976-.6052.1357-1.054-.0209-1.4505-.48-.9497-1.0853-2.5463-1.1062-3.5064-.0313-.4279.48-.887.6365-1.5236.5009-1.4193-.3131-2.6924.6261-2.8281 2.0662-.0626.6366-.3444 1.0227-.9183 1.2732-1.3254.574-1.8263 2.0871-1.0854 3.329.3236.5426.3549 1.0331 0 1.5653-.2817.4279-.3861.9079-.3235 1.4193.1148.9288.5949 1.5967 1.461 1.9515.4696.1982.7827.5113.8349 1.0331.1461 1.3149.7201 1.9828 2.035 2.3376v5.1761c0 .5218.1669.9496.6261 1.2105.48.2714.9392.1983 1.3984-.0939.5844-.3652 1.1792-.7096 1.7532-1.0853.2296-.1565.3965-.1357.6261.0104.5844.3862 1.1792.7618 1.795 1.0958.2504.1356.5635.2296.8452.2191.6888-.0417 1.1167-.5739 1.1167-1.3462.0104-1.6175.0104-3.2246 0-4.8421 0-.2296.0313-.3548.3026-.4383 1.0227-.3027 1.6071-1.0123 1.7114-2.0872.0522-.5739.3131-.9496.8558-1.1792 1.3984-.5948 1.8888-2.108 1.1166-3.402-.3131-.5323-.3131-1.0019 0-1.5132ZM34.01 34.5315c-.5426-.3339-1.0749-.5948-1.5236-.9496-.9183-.7305-1.7845-.7305-2.7028 0-.4488.3548-.981.6157-1.5445.9496v-5.5413c.4174-.0522.7618.0835 1.0018.3965.9705 1.2627 2.849 1.2314 3.7777 0 .2296-.3026.5636-.4487.9914-.407v5.5518Zm4.143-11.6671c.4592.7723.2191 1.4714-.6053 1.8367-.8557.3757-1.4088 1.0123-1.4505 1.9515-.0418.8661-.7305 1.4818-1.7011 1.2209-.8557-.2295-1.6697.0209-2.2123.7201-.574.7305-1.5549.7096-2.1185-.0104-.5426-.6992-1.3462-.8975-2.2228-.7097-1.0227.2192-1.5445-.1878-1.6592-1.2314-.094-.8766-.5636-1.5236-1.3776-1.8888-.9705-.4488-1.1688-1.0436-.647-1.9619.4488-.7931.4488-1.5863 0-2.3794-.5218-.9183-.3235-1.5131.647-1.9619.8349-.3861 1.3045-1.054 1.3776-1.9723.0834-.9184.6678-1.3671 1.5757-1.1584.9706.2087 1.7637-.0626 2.4107-.8035.574-.6575 1.3253-.6575 1.9097.0104.6575.7409 1.4506 1.0018 2.4211.7931.8766-.1983 1.4506.2087 1.5445 1.1062.1043 1.0123.6052 1.7219 1.5549 2.0976.5009.1982.7514.5739.7722 1.2314-.0521.1252-.1148.3652-.24.5739-.48.8453-.48 1.6802.0209 2.5359ZM26.7466 7.05431V5.5307c0-.98096-.5009-1.48187-1.4923-1.48187H13.4724c-.8036 0-1.3358.51135-1.3566 1.30446-.0209.64701-.0209 1.30446 0 1.95147.0208.64702.4487 1.14793 1.0853 1.23141.4174.05218.8557.04175 1.2836.02088.3339-.02088.5635-.31307.5217-.61571-.0417-.32351-.2295-.52178-.5739-.53222-.2714-.01044-.5427-.01044-.8244 0-.2505.01044-.3549-.08349-.3444-.33394.0104-.51135.0104-1.01226 0-1.52361-.0105-.26089.1043-.32351.3444-.32351 3.882.01044 7.7537.01044 11.6357 0 .2609 0 .334.09392.3236.34438-.0105.4383 0 .88703 0 1.32533 0 .51135 0 .51135-.5114.51135h-7.8059c-.407 0-.6574.21915-.6783.55309-.0209.35482.24.60527.6574.61571.3131.01043.6262 0 .9393 0h7.0232c1.0435-.01044 1.5445-.50092 1.5549-1.52361ZM20.5583 22.9996c-.0522-.2087-.2296-.407-.407-.5531-.0835-.073-.2714-.0313-.4175-.0313H5.09256c-.41742 0-.68875.24-.68875.5844 0 .3444.27133.574.68875.5844H19.6921c.1461 0 .2922.0104.4279-.0209.2922-.0835.5009-.2817.4383-.5635ZM20.1616 18.3243c-.1461-.0417-.313-.0417-.4591-.0417H5.30121c-.16697 0-.38612-.0209-.49047.0626-.16697.1461-.34438.3653-.36525.574-.03131.2713.1774.48.48004.5218.12523.0208.26089.0104.38612.0104H19.6712c.1252 0 .2609.0104.3861-.0104.2922-.0313.48-.2087.5113-.501.0313-.3026-.1148-.5217-.407-.6157ZM20.1824 27.6438c.167-.1357.3548-.3652.3548-.5635 0-.167-.2087-.3757-.3861-.5114-.1044-.073-.3026-.0417-.4592-.0417H5.10282c-.42786 0-.68876.2296-.68876.5739 0 .3444.26089.574.67832.5949H19.6919c.167.0104.3861.0313.4905-.0522ZM5.14456 15.3502H19.7024c.1565 0 .313 0 .4591-.0418.2922-.073.4279-.2922.407-.5844-.0104-.2817-.1669-.4696-.4383-.5218-.1461-.0313-.313-.0208-.4696-.0208H5.14456c-.45917 0-.7305.2191-.7305.5739s.27133.5844.7305.5949ZM8.80746 32.5586H5.14453c-.2922 0-.54266.0626-.66788.3548-.18785.4279.12522.814.66788.814H12.366c.4801 0 .7514-.2296.741-.6053-.0105-.3652-.2609-.5635-.741-.5635H8.80746Z"/><path fill="#C4C4CD" d="M31.1087 16.6866c-2.6924.0104-4.8839 2.2019-4.8943 4.8943-.0104 2.7029 2.2019 4.9152 4.9152 4.9152 2.7342 0 4.9152-2.2019 4.9048-4.9465-.0105-2.6924-2.2228-4.8735-4.9257-4.863Zm.0209 8.6407c-2.0663 0-3.7568-1.701-3.736-3.7568.0209-2.0663 1.6906-3.7151 3.7464-3.7047 2.0767 0 3.736 1.6801 3.7256 3.7568-.0105 2.0454-1.6802 3.7047-3.736 3.7047Z"/></svg>